<?xml version="1.0" encoding="utf-8"?>
<svg version="1.1" xmlns="http://www.w3.org/2000/svg" xmlns:xlink="http://www.w3.org/1999/xlink">
  <defs>
    <symbol id="logo" viewBox="0 0 173.409 30.744">
      <g>
        <path d="M23.094,17.926c-0.061-0.204-0.066-0.402-0.018-0.594c0.048-0.336,0.09-0.678,0.126-1.026 c0.036-0.348,0.054-0.689,0.054-1.026c0-2.472-0.732-4.488-2.196-6.048c-1.536-1.607-3.564-2.412-6.084-2.412 s-4.548,0.804-6.084,2.412c-1.464,1.561-2.196,3.577-2.196,6.048c0,2.472,0.732,4.488,2.196,6.048 c1.536,1.608,3.564,2.412,6.084,2.412c1.008,0,1.908-0.12,2.7-0.36l-2.052-2.052c-0.24-0.288-0.36-0.588-0.36-0.9 c0-0.312,0.12-0.612,0.36-0.9l1.944-1.944c0.264-0.264,0.564-0.396,0.9-0.396s0.636,0.132,0.9,0.396l7.812,7.812 c0.264,0.265,0.396,0.564,0.396,0.9c0,0.336-0.132,0.636-0.396,0.9l-1.944,1.944c-0.216,0.24-0.516,0.36-0.9,0.36 c-0.36,0-0.66-0.12-0.9-0.36l-1.764-1.8c-1.992,1.08-4.224,1.62-6.696,1.62c-4.008,0-7.285-1.332-9.828-3.996 c-2.496-2.615-3.744-5.844-3.744-9.684s1.248-7.068,3.744-9.684C7.74,2.932,11.016,1.6,14.976,1.6c3.983,0,7.26,1.344,9.828,4.032 c2.496,2.568,3.744,5.784,3.744,9.648c0,1.704-0.276,3.348-0.828,4.932c-0.168,0.457-0.468,0.72-0.9,0.792 c-0.456,0.121-0.852,0.013-1.188-0.324L23.4,18.448C23.256,18.304,23.154,18.13,23.094,17.926z" />
        <path d="M54.608,1.978c0.252,0.252,0.378,0.546,0.378,0.882v13.608c0,3.504-1.068,6.36-3.204,8.568 c-2.137,2.184-4.884,3.276-8.244,3.276c-3.336,0-6.072-1.092-8.208-3.276c-2.136-2.208-3.204-5.063-3.204-8.568V2.859 c0-0.335,0.126-0.63,0.378-0.882S33.05,1.6,33.386,1.6h2.7c0.336,0,0.63,0.126,0.882,0.378c0.252,0.252,0.378,0.546,0.378,0.882 v13.68c0,2.232,0.635,3.937,1.908,5.112c1.08,1.008,2.508,1.512,4.284,1.512c1.751,0,3.191-0.504,4.32-1.512 c1.272-1.2,1.908-2.903,1.908-5.112V2.859c0-0.335,0.12-0.63,0.36-0.882C50.366,1.726,50.654,1.6,50.99,1.6h2.736 C54.062,1.6,54.356,1.726,54.608,1.978z" />
        <path d="M65.083,1.978c0.252,0.252,0.378,0.546,0.378,0.882v23.904c0,0.336-0.126,0.63-0.378,0.882s-0.546,0.378-0.882,0.378h-2.7 c-0.336,0-0.63-0.126-0.882-0.378s-0.378-0.545-0.378-0.882V2.859c0-0.335,0.126-0.63,0.378-0.882S61.166,1.6,61.501,1.6h2.7 C64.538,1.6,64.832,1.726,65.083,1.978z" />
        <path d="M88.674,14.956c1.008,0.648,1.782,1.44,2.322,2.376c0.54,0.936,0.81,1.98,0.81,3.132c0,2.641-1.02,4.692-3.06,6.156 c-1.896,1.32-4.453,1.98-7.668,1.98c-3.672,0-6.492-0.792-8.46-2.376c-1.824-1.464-2.868-3.528-3.132-6.192 c-0.048-0.384,0.06-0.708,0.324-0.972c0.264-0.264,0.576-0.396,0.936-0.396h2.808c0.336,0,0.624,0.108,0.864,0.324 c0.24,0.216,0.372,0.492,0.396,0.828c0.072,1.201,0.66,2.124,1.764,2.772c1.104,0.625,2.616,0.936,4.536,0.936 c1.368,0,2.424-0.113,3.168-0.342c0.744-0.228,1.284-0.504,1.62-0.828c0.336-0.324,0.534-0.653,0.594-0.99 c0.06-0.336,0.09-0.6,0.09-0.792c0-0.528-0.229-0.948-0.684-1.26c-0.672-0.456-1.561-0.852-2.664-1.188 c-0.6-0.192-1.218-0.366-1.854-0.522c-0.636-0.156-1.302-0.318-1.998-0.486c-1.464-0.312-2.844-0.732-4.14-1.26 c-0.697-0.288-1.332-0.612-1.908-0.972c-0.576-0.36-1.092-0.78-1.548-1.26c-1.057-1.056-1.584-2.436-1.584-4.14 c0-2.352,0.9-4.271,2.7-5.76c1.752-1.416,4.271-2.124,7.56-2.124c3.312,0,5.928,0.792,7.848,2.376 c1.776,1.464,2.724,3.348,2.844,5.652c0.048,0.336-0.06,0.648-0.324,0.936c-0.288,0.24-0.588,0.36-0.9,0.36h-2.808 c-0.313,0-0.583-0.102-0.81-0.306c-0.229-0.204-0.366-0.462-0.414-0.774c-0.024-0.24-0.078-0.492-0.162-0.756 c-0.084-0.264-0.234-0.527-0.45-0.792c-0.216-0.264-0.504-0.509-0.864-0.738c-0.36-0.228-0.84-0.426-1.44-0.594 c-0.72-0.216-1.632-0.324-2.736-0.324c-1.128,0-2.016,0.12-2.664,0.36c-0.696,0.216-1.201,0.468-1.512,0.756 c-0.288,0.265-0.468,0.517-0.54,0.756c-0.12,0.408-0.18,0.792-0.18,1.152c0,0.048,0.012,0.121,0.036,0.216 c0.024,0.096,0.12,0.229,0.288,0.396c0.192,0.168,0.402,0.324,0.63,0.468s0.498,0.276,0.81,0.396 c0.672,0.288,1.5,0.552,2.484,0.792c0.959,0.264,1.967,0.516,3.024,0.756c1.104,0.265,2.136,0.552,3.096,0.864 C86.85,13.936,87.834,14.404,88.674,14.956z" />
        <path d="M122.585,1.6c0.36,0,0.66,0.125,0.9,0.376c0.24,0.25,0.36,0.542,0.36,0.875v2.61c0,0.358-0.121,0.662-0.36,0.912 c-0.24,0.25-0.54,0.375-0.9,0.375h-17.784c-0.336,0-0.63-0.125-0.882-0.375c-0.252-0.25-0.378-0.554-0.378-0.912v-2.61 c0-0.333,0.126-0.625,0.378-0.875c0.252-0.25,0.546-0.376,0.882-0.376H122.585z M104.801,17.548c-0.336,0-0.63-0.126-0.882-0.378 s-0.378-0.545-0.378-0.882v-2.7c0-0.335,0.126-0.63,0.378-0.882s0.546-0.378,0.882-0.378h16.164c0.36,0,0.666,0.126,0.918,0.378 s0.378,0.546,0.378,0.882v2.7c0,0.336-0.126,0.63-0.378,0.882s-0.558,0.378-0.918,0.378H104.801z M122.585,23.164 c0.36,0,0.66,0.125,0.9,0.376c0.24,0.25,0.36,0.554,0.36,0.911v2.61c0,0.333-0.121,0.625-0.36,0.876 c-0.24,0.25-0.54,0.375-0.9,0.375h-17.784c-0.336,0-0.63-0.125-0.882-0.375c-0.252-0.25-0.378-0.542-0.378-0.876v-2.61 c0-0.357,0.126-0.661,0.378-0.911c0.252-0.25,0.546-0.376,0.882-0.376H122.585z" />
        <path d="M145.366,14.956c1.008,0.648,1.782,1.44,2.322,2.376c0.54,0.936,0.81,1.98,0.81,3.132c0,2.641-1.02,4.692-3.06,6.156 c-1.896,1.32-4.453,1.98-7.668,1.98c-3.672,0-6.492-0.792-8.46-2.376c-1.824-1.464-2.868-3.528-3.132-6.192 c-0.048-0.384,0.06-0.708,0.324-0.972c0.264-0.264,0.576-0.396,0.936-0.396h2.808c0.336,0,0.624,0.108,0.864,0.324 c0.24,0.216,0.372,0.492,0.396,0.828c0.072,1.201,0.66,2.124,1.764,2.772c1.104,0.625,2.616,0.936,4.536,0.936 c1.368,0,2.424-0.113,3.168-0.342c0.744-0.228,1.284-0.504,1.62-0.828c0.336-0.324,0.534-0.653,0.594-0.99 c0.06-0.336,0.09-0.6,0.09-0.792c0-0.528-0.229-0.948-0.684-1.26c-0.672-0.456-1.561-0.852-2.664-1.188 c-0.6-0.192-1.218-0.366-1.854-0.522c-0.636-0.156-1.302-0.318-1.998-0.486c-1.464-0.312-2.844-0.732-4.14-1.26 c-0.697-0.288-1.332-0.612-1.908-0.972c-0.576-0.36-1.092-0.78-1.548-1.26c-1.057-1.056-1.584-2.436-1.584-4.14 c0-2.352,0.9-4.271,2.7-5.76c1.752-1.416,4.271-2.124,7.56-2.124c3.312,0,5.928,0.792,7.848,2.376 c1.776,1.464,2.724,3.348,2.844,5.652c0.048,0.336-0.06,0.648-0.324,0.936c-0.288,0.24-0.588,0.36-0.9,0.36h-2.808 c-0.313,0-0.583-0.102-0.81-0.306c-0.229-0.204-0.366-0.462-0.414-0.774c-0.024-0.24-0.078-0.492-0.162-0.756 c-0.084-0.264-0.234-0.527-0.45-0.792c-0.216-0.264-0.504-0.509-0.864-0.738c-0.36-0.228-0.84-0.426-1.44-0.594 c-0.72-0.216-1.632-0.324-2.736-0.324c-1.128,0-2.016,0.12-2.664,0.36c-0.696,0.216-1.201,0.468-1.512,0.756 c-0.288,0.265-0.468,0.517-0.54,0.756c-0.12,0.408-0.18,0.792-0.18,1.152c0,0.048,0.012,0.121,0.036,0.216 c0.024,0.096,0.12,0.229,0.288,0.396c0.192,0.168,0.402,0.324,0.63,0.468s0.498,0.276,0.81,0.396 c0.672,0.288,1.5,0.552,2.484,0.792c0.959,0.264,1.967,0.516,3.024,0.756c1.104,0.265,2.136,0.552,3.096,0.864 C143.542,13.936,144.526,14.404,145.366,14.956z" />
        <path d="M171.297,1.98c0.239,0.253,0.36,0.549,0.36,0.888v2.61c0,0.339-0.121,0.635-0.36,0.889c-0.24,0.254-0.528,0.38-0.864,0.38 h-7.092v20.018c0,0.335-0.126,0.629-0.378,0.88c-0.252,0.252-0.546,0.377-0.882,0.377h-2.7c-0.36,0-0.661-0.125-0.9-0.377 c-0.24-0.251-0.36-0.545-0.36-0.88V6.748h-7.092c-0.336,0-0.63-0.126-0.882-0.38c-0.252-0.253-0.378-0.55-0.378-0.889v-2.61 c0-0.339,0.126-0.635,0.378-0.888c0.252-0.254,0.546-0.381,0.882-0.381h19.404C170.769,1.6,171.057,1.727,171.297,1.98z" />
      </g>
    </symbol>
  </defs>
</svg>
