<svg version="1" xmlns="http://www.w3.org/2000/svg" width="933.333" height="933.333" viewBox="0 0 700.000000 700.000000"><path d="M325.8 63.5c-.2.2-3.7.6-7.8.9-28.3 2.1-62.7 10.4-85.5 20.6-35.8 16.1-60.2 32.8-85.5 58.7-38.6 39.5-63.5 85.2-74.6 136.5-.8 4-1.7 8-1.9 8.8-.4 1.8-2.3 15-3 20.5-2.5 19.7-2.5 65.7 0 78.5.2 1.2.9 5.5 1.5 9.7 4.4 32.2 16.3 67.2 32.3 95.8 3.7 6.5 15.7 25.1 18.4 28.5.7.8 3.5 4.4 6.2 7.9 37.5 47.3 87 80 143.5 94.6 12.2 3.1 17.4 4.2 30.1 6 2.2.4 5.1.8 6.5 1.1 11.3 2 61.4 2.7 75.5 1.1 3.9-.5 9-1.1 11.5-1.3 3.6-.4 23.9-4.2 31.2-5.9 9.3-2.1 36.3-10.9 38.3-12.5.6-.4 2.1-1.1 3.5-1.5 3.4-1 21.1-9.9 28.5-14.3 50.3-29.9 90.2-75 113.5-128.2 2.3-5.2 4.3-10.2 4.5-11 .2-.8 1.6-4.6 3-8.4 6-16.1 11.9-42.8 14.5-66.1 1.5-12.5 2.1-46 1-54.1-1.3-10.6-6.4-18-15.6-22.5l-4.9-2.4H480c-144.8 0-135.7-.4-143.8 6.6-2.2 1.9-5.2 5.9-6.7 8.9l-2.8 5.5-.1 30.4c-.1 22 .2 31.8 1.2 35.5 1.7 6.6 7.4 13.3 14.3 16.8l5.4 2.7 81.9.1c45.1 0 82.1.2 82.3.4.8.7-3.9 13.2-8.4 22.6-16.8 35.1-47.3 63.9-83 78.3-6 2.5-21.5 7.3-26.4 8.2-8 1.6-20.2 3.5-24.9 4-7.1.6-34.3.6-39.5 0-2.2-.3-6-.7-8.5-1-23-2.7-46.7-10.7-66-22.3-23.1-13.9-45.5-37.6-58.8-62.3-7.1-13.4-16-40.6-17.7-54.4-.2-2.2-.7-5.8-1-8-1.4-10.6-2-36.7-1-46 .2-2.2.6-6.5.9-9.5.4-3 .8-6.6 1.1-8 .3-1.3.7-4.2 1.1-6.4.3-2.2.7-4.3.9-4.7.2-.3.7-2.1 1-4 .3-1.9 2.2-8.1 4.1-13.9 16.4-49.2 53.1-86.5 100.6-102.4 5.9-1.9 12.2-3.8 14-4.1 1.8-.3 4.9-1 6.8-1.5 14.5-3.7 52-4.8 71-2.2 45.6 6.4 84.8 29.1 109.8 63.6 10.8 14.9 12.9 17.3 17.9 19.7 4.8 2.3 4.9 2.3 43.3 2.3 42.9-.1 42.2 0 50-7.1 5.9-5.2 8.3-11.1 8.3-19.5-.1-5.8-.6-7.7-4.5-15.5-16.8-33.5-34.9-57.6-63.2-84-36.5-34.1-87.3-58.6-136.3-65.9-2.1-.3-4.5-.7-5.3-.9-.8-.2-4.6-.7-8.5-1-3.8-.4-8.1-.9-9.5-1.2-2.6-.6-53.6-1.3-54.2-.8z"/></svg>