<?xml version="1.0" encoding="utf-8"?>
<svg version="1.1" id="Layer_1" xmlns="http://www.w3.org/2000/svg" xmlns:xlink="http://www.w3.org/1999/xlink">
<defs>
<symbol id="logo" viewBox="0 0 56.42 11" >
<g>
<path d="M9.916,5.248c0.008,0.04,0.012,0.082,0.012,0.126s0,0.086,0,0.126c0,0.184-0.012,0.388-0.036,0.612 c-0.12,1.008-0.52,1.864-1.2,2.568C7.852,9.56,6.776,10,5.464,10S3.076,9.56,2.236,8.68C1.412,7.816,1,6.756,1,5.5 s0.412-2.316,1.236-3.18C3.076,1.44,4.152,1,5.464,1s2.388,0.44,3.228,1.32c0.32,0.328,0.583,0.708,0.792,1.14 c0.04,0.064,0.06,0.14,0.06,0.228c0,0.112-0.041,0.208-0.12,0.288c-0.08,0.08-0.18,0.12-0.3,0.12H8.116 c-0.152,0-0.268-0.064-0.348-0.192C7.72,3.832,7.672,3.764,7.624,3.7C7.576,3.636,7.52,3.572,7.456,3.508 C6.952,2.98,6.288,2.716,5.464,2.716c-0.824,0-1.488,0.264-1.992,0.792C2.984,4.028,2.74,4.692,2.74,5.5 c0,0.816,0.244,1.48,0.732,1.992C3.976,8.02,4.64,8.284,5.464,8.284c0.824,0,1.488-0.264,1.992-0.792 c0.272-0.28,0.468-0.616,0.588-1.008H5.536c-0.112,0-0.21-0.042-0.294-0.126S5.116,6.176,5.116,6.064v-0.84 c0-0.112,0.042-0.21,0.126-0.294s0.182-0.126,0.294-0.126h3.96c0.112,0,0.208,0.038,0.288,0.114c0.08,0.076,0.124,0.17,0.132,0.282 V5.248z"/>
<path d="M12.101,1c0.12,0,0.222,0.042,0.306,0.126s0.126,0.186,0.126,0.306v0.876c0,0.12-0.042,0.222-0.126,0.306 C12.322,2.698,12.22,2.74,12.101,2.74h-1.236c-0.112,0-0.21-0.042-0.294-0.126c-0.084-0.084-0.126-0.186-0.126-0.306V1.432 c0-0.12,0.042-0.222,0.126-0.306S10.752,1,10.864,1H12.101z M17.464,1c0.112,0,0.21,0.042,0.294,0.126s0.126,0.186,0.126,0.306 v0.876c0,0.12-0.042,0.222-0.126,0.306c-0.084,0.084-0.182,0.126-0.294,0.126h-2.412v6.816c0,0.112-0.042,0.21-0.126,0.294 s-0.182,0.126-0.294,0.126h-0.924c-0.12,0-0.222-0.042-0.306-0.126s-0.126-0.182-0.126-0.294V1.432c0-0.12,0.042-0.222,0.126-0.306 S13.588,1,13.708,1H17.464z"/>
<path d="M25.951,1c0.111,0,0.208,0.042,0.292,0.126s0.125,0.182,0.125,0.294v8.064c0,0.112-0.042,0.21-0.125,0.294 s-0.181,0.126-0.292,0.126h-0.906c-0.119,0-0.219-0.042-0.298-0.126c-0.079-0.084-0.119-0.182-0.119-0.294V6.316h-3.864v3.168 c0,0.112-0.04,0.21-0.119,0.294s-0.179,0.126-0.298,0.126h-0.906c-0.111,0-0.208-0.042-0.292-0.126s-0.125-0.182-0.125-0.294V4.996 c0-0.112,0.042-0.21,0.126-0.294s0.182-0.126,0.294-0.126h5.184V1.42c0-0.112,0.04-0.21,0.119-0.294 C24.827,1.042,24.926,1,25.045,1H25.951z M19.441,4.072c-0.111,0-0.208-0.042-0.292-0.126s-0.125-0.182-0.125-0.294V1.42 c0-0.112,0.042-0.21,0.125-0.294S19.33,1,19.441,1h0.906c0.119,0,0.218,0.042,0.298,0.126s0.119,0.182,0.119,0.294v2.232 c0,0.112-0.04,0.21-0.119,0.294s-0.179,0.126-0.298,0.126H19.441z"/>
<path d="M35.824,9.232c0.088,0.144,0.092,0.288,0.012,0.432s-0.2,0.216-0.36,0.216h-1.092c-0.152,0-0.269-0.064-0.348-0.192 l-1.83-2.892h-2.143V9.46c0,0.112-0.042,0.21-0.125,0.294S29.758,9.88,29.647,9.88h-0.906c-0.111,0-0.208-0.042-0.292-0.126 c-0.083-0.084-0.125-0.183-0.125-0.295V5.501c0-0.112,0.042-0.21,0.126-0.294c0.084-0.084,0.182-0.126,0.294-0.126h3.696 c0.704,0,1.172-0.198,1.404-0.594c0.08-0.126,0.12-0.309,0.12-0.546c0-0.372-0.124-0.665-0.372-0.879 c-0.256-0.229-0.624-0.345-1.104-0.345h-3.744c-0.112,0-0.21-0.042-0.294-0.126s-0.126-0.184-0.126-0.296v-0.87 c0-0.113,0.042-0.211,0.125-0.296S28.631,1,28.743,1h3.846c0.926,0,1.673,0.264,2.24,0.792c0.583,0.528,0.875,1.244,0.875,2.148 c0,1.184-0.497,1.996-1.49,2.436c-0.032,0.016-0.063,0.03-0.095,0.042s-0.067,0.026-0.107,0.042L35.824,9.232z"/>
<path d="M44.623,1c0.111,0,0.208,0.042,0.292,0.126S45.04,1.308,45.04,1.42v8.04c0,0.112-0.042,0.21-0.125,0.294 S44.734,9.88,44.623,9.88h-1.049c-0.143,0-0.258-0.056-0.346-0.168l-5.868-8.04c-0.104-0.144-0.116-0.292-0.036-0.444 C37.395,1.076,37.519,1,37.693,1h1.049c0.151,0,0.262,0.056,0.333,0.168L43.3,6.892V1.42c0-0.112,0.04-0.21,0.119-0.294 C43.498,1.042,43.598,1,43.717,1H44.623z M38.599,6.82c0.111,0,0.208,0.041,0.292,0.12c0.083,0.08,0.125,0.18,0.125,0.3v2.22 c0,0.112-0.042,0.21-0.125,0.294S38.709,9.88,38.599,9.88h-0.906c-0.111,0-0.208-0.042-0.292-0.126s-0.125-0.182-0.125-0.294V7.24 c0-0.12,0.042-0.22,0.125-0.3c0.083-0.08,0.181-0.12,0.292-0.12H38.599z"/>
<path d="M55.408,5.248c0.008,0.04,0.012,0.082,0.012,0.126s0,0.086,0,0.126c0,0.184-0.012,0.388-0.036,0.612 c-0.12,1.008-0.52,1.864-1.2,2.568C53.344,9.56,52.268,10,50.956,10s-2.388-0.44-3.228-1.32c-0.824-0.864-1.236-1.924-1.236-3.18 s0.412-2.316,1.236-3.18C48.568,1.44,49.644,1,50.956,1s2.388,0.44,3.228,1.32c0.32,0.328,0.583,0.708,0.792,1.14 c0.04,0.064,0.06,0.14,0.06,0.228c0,0.112-0.041,0.208-0.12,0.288c-0.08,0.08-0.18,0.12-0.3,0.12h-1.008 c-0.152,0-0.268-0.064-0.348-0.192c-0.048-0.072-0.096-0.14-0.144-0.204c-0.048-0.064-0.104-0.128-0.168-0.192 c-0.504-0.528-1.168-0.792-1.992-0.792c-0.824,0-1.488,0.264-1.992,0.792c-0.488,0.521-0.732,1.184-0.732,1.992 c0,0.816,0.244,1.48,0.732,1.992c0.504,0.528,1.168,0.792,1.992,0.792c0.824,0,1.488-0.264,1.992-0.792 c0.272-0.28,0.468-0.616,0.588-1.008h-2.508c-0.112,0-0.21-0.042-0.294-0.126s-0.126-0.182-0.126-0.294v-0.84 c0-0.112,0.042-0.21,0.126-0.294s0.182-0.126,0.294-0.126h3.96c0.112,0,0.208,0.038,0.288,0.114c0.08,0.076,0.124,0.17,0.132,0.282 V5.248z"/>
</g>
</symbol>
</defs>
</svg>
